<svg xmlns="http://www.w3.org/2000/svg" xmlns:xlink="http://www.w3.org/1999/xlink" width="47" height="46" viewBox="0 0 47 46"><defs><path id="km28a" d="M374.7 2161.3a3.88 3.88 0 0 0-.71-.2c.06.5.1 1 .1 1.51 0 .79-.04 1.55-.1 2.3.66.23 1.09.57 1.44.87.39.33.67.57 1.35.69a.98.98 0 0 1-.34 1.92 4.31 4.31 0 0 1-2.27-1.12c-.17-.13-.3-.24-.46-.34a22.04 22.04 0 0 1-.95 3.69c.63.41.96.88 1.23 1.28.28.4.49.7 1.09 1a.98.98 0 1 1-.85 1.75c-1.07-.51-1.5-1.14-1.85-1.65-.13-.2-.25-.35-.4-.5a19.44 19.44 0 0 1-1.92 3.27c.46.56.64 1.1.78 1.55.15.49.27.84.77 1.31a.98.98 0 0 1-1.34 1.43c-.88-.82-1.1-1.56-1.3-2.16-.06-.22-.13-.4-.2-.56-.88.94-1.86 1.8-2.92 2.59.38.73.4 1.33.4 1.82 0 .47 0 .81.36 1.37a.9.9 0 0 1-.34 1.26 1.02 1.02 0 0 1-1.34-.32 3.85 3.85 0 0 1-.63-2.3c0-.29-.01-.5-.08-.74a24.2 24.2 0 0 1-3.46 1.75c.18.8.06 1.38-.05 1.86-.12.47-.2.81 0 1.43.17.48-.12.99-.63 1.14-.1.03-.2.04-.3.04a.97.97 0 0 1-.93-.64c-.36-1.08-.19-1.8-.05-2.37.07-.28.11-.51.1-.78-1.2.4-2.46.7-3.78.95a4.35 4.35 0 0 1-.43 1.66c-.2.46-.35.8-.26 1.46a.98.98 0 1 1-1.94.25c-.15-1.2.16-1.92.41-2.5.09-.19.15-.36.2-.53-1.45.19-2.98.3-4.56.32a4.23 4.23 0 0 1-1.05 1.78c-.36.42-.65.75-.78 1.38a.98.98 0 0 1-1.92-.4 4.63 4.63 0 0 1 1.23-2.27c.2-.21.34-.39.46-.58a8.73 8.73 0 0 1-3.65-1.36c-.61.5-1.19.65-1.67.78-.47.12-.85.22-1.33.66a.98.98 0 0 1-1.31-1.45 4.56 4.56 0 0 1 2.15-1.1c.25-.07.44-.13.63-.22a8.76 8.76 0 0 1-1.82-2.96h-.03c-.88 0-1.5-.36-1.98-.65-.48-.3-.8-.49-1.39-.43a.98.98 0 1 1-.2-1.94 3.9 3.9 0 0 1 2.6.7c.2.11.37.2.53.27-.04-.33-.1-.64-.1-.97 0-.82.15-1.6.36-2.35a3.92 3.92 0 0 1-1.3-1.37c-.26-.41-.47-.74-1.03-1.06a.98.98 0 1 1 .97-1.7c.98.57 1.39 1.2 1.71 1.7.14.23.26.4.41.56a8.79 8.79 0 0 1 2.23-2.64 3.9 3.9 0 0 1-.25-1.86c.03-.49.05-.87-.22-1.48a.98.98 0 0 1 1.78-.8c.47 1.04.43 1.8.4 2.4-.02.25-.03.45 0 .66a8.7 8.7 0 0 1 3.73-.86c.08-.06.22-.32.38-.76a6.6 6.6 0 0 1-.94-.94l-.29-.32c-.23-.24-.46-.43-1.3-.53a.98.98 0 0 1 .25-1.94c1.15.14 1.84.46 2.46 1.11l.31.35c.07-.55.11-1.16.11-1.86 0-.75.08-1.48.2-2.19a4.14 4.14 0 0 1-1.4-1.12 2.55 2.55 0 0 0-1.19-.88.98.98 0 1 1 .67-1.84c1.09.4 1.59.97 2 1.43.15.17.28.32.44.44.4-1.16.97-2.24 1.67-3.23a4.08 4.08 0 0 1-.76-1.6c-.14-.5-.24-.85-.71-1.33a.98.98 0 1 1 1.4-1.37 4.44 4.44 0 0 1 1.19 2.17c.06.22.12.4.2.57.85-.86 1.83-1.6 2.9-2.2a4.07 4.07 0 0 1 .01-1.78c.09-.49.15-.84-.06-1.48a.98.98 0 0 1 1.85-.62c.38 1.1.24 1.85.13 2.45-.04.23-.07.42-.07.62a12.6 12.6 0 0 1 3.38-.7c.22-.82.7-1.34 1.08-1.75.4-.42.69-.73.76-1.34a.99.99 0 0 1 1.09-.85c.53.06.92.55.85 1.08a4.08 4.08 0 0 1-1.27 2.44c-.15.17-.27.3-.37.44 1.27.13 2.48.45 3.62.92.47-.6.97-.87 1.4-1.1.44-.24.76-.4 1.12-.97a.98.98 0 0 1 1.64 1.06 4.4 4.4 0 0 1-1.84 1.63c-.2.11-.37.2-.52.33 1.03.65 1.97 1.44 2.78 2.35a4.15 4.15 0 0 1 1.74-.4c.51-.03.88-.05 1.44-.4a.98.98 0 1 1 1.03 1.67c-.99.61-1.75.65-2.36.68-.24.02-.43.03-.62.08a12.64 12.64 0 0 1 1.49 3.3 4.6 4.6 0 0 1 1.76.33c.48.17.87.31 1.57.24a.99.99 0 0 1 1.07.87.98.98 0 0 1-.87 1.07l-.57.03c-.82 0-1.38-.2-1.85-.37zm-2.57 1.31a10.76 10.76 0 0 0-21.5 0c0 3.4-.9 6.84-2.93 6.84a6.85 6.85 0 0 0 0 13.69c15.3 0 24.43-7.68 24.43-20.53zm-3.9 0a6.85 6.85 0 1 1-13.7-.01 6.85 6.85 0 0 1 13.7.01zm-1.96 0a4.9 4.9 0 1 0-9.78.01 4.9 4.9 0 0 0 9.78 0zm-15.63 13.69a2.93 2.93 0 1 1-5.87-.01 2.93 2.93 0 0 1 5.87 0zm-1.96 0a.98.98 0 1 0-1.95 0 .98.98 0 0 0 1.95 0zm11.73-1.96a2.93 2.93 0 1 1-5.87 0 2.93 2.93 0 0 1 5.87 0zm-1.96 0a.98.98 0 1 0-1.95 0 .98.98 0 0 0 1.95 0z"/></defs><g><g transform="translate(-333 -2144)"><use fill="#8fd13c" xlink:href="#km28a"/></g></g></svg>
