<svg xmlns="http://www.w3.org/2000/svg" xmlns:xlink="http://www.w3.org/1999/xlink" width="41" height="35" viewBox="0 0 41 35"><defs><path id="b6taa" d="M552.8 2153c2.1 0 3.8 1.72 3.8 3.84s-1.7 3.84-3.8 3.84c-2.1 0-3.8-1.72-3.8-3.84s1.7-3.84 3.8-3.84zm0 15.36c2.1 0 3.8 1.72 3.8 3.84s-1.7 3.84-3.8 3.84c-2.1 0-3.8-1.72-3.8-3.84s1.7-3.84 3.8-3.84zm30.4-15.36c2.1 0 3.8 1.72 3.8 3.84s-1.7 3.84-3.8 3.84c-2.1 0-3.8-1.72-3.8-3.84s1.7-3.84 3.8-3.84zm0 15.36c2.1 0 3.8 1.72 3.8 3.84s-1.7 3.84-3.8 3.84c-2.1 0-3.8-1.72-3.8-3.84s1.7-3.84 3.8-3.84zm-15.2-6.4c2.1 0 3.8 1.72 3.8 3.84s-1.7 3.84-3.8 3.84c-2.1 0-3.8-1.72-3.8-3.84s1.7-3.84 3.8-3.84zm0 15.36c2.1 0 3.8 1.72 3.8 3.84s-1.7 3.84-3.8 3.84c-2.1 0-3.8-1.72-3.8-3.84s1.7-3.84 3.8-3.84z"/></defs><g><g transform="translate(-547 -2151)"><use fill="#8fd13c" xlink:href="#b6taa"/></g></g></svg>
