<svg xmlns="http://www.w3.org/2000/svg" xmlns:xlink="http://www.w3.org/1999/xlink" width="29" height="45" viewBox="0 0 29 45"><defs><path id="opxwa" d="M812.8 2148.45c.5.83 12.2 20.37 12.2 28.35 0 7.28-5.83 13.2-13 13.2s-13-5.92-13-13.2c0-7.98 11.7-27.52 12.2-28.35a.93.93 0 0 1 1.6 0zm10.33 28.35c0-6.3-8.46-21.39-11.13-26-2.67 4.61-11.13 19.7-11.13 26 0 6.23 5 11.3 11.13 11.3 6.14 0 11.13-5.07 11.13-11.3zm-13.73 8.07l-1.12-1.56s4.36 1.2 7.29-.96c3.23-2.39 4.55-6.62 4.55-6.62l1.1 1.56s-1.02 4.2-4.23 6.57c-2.95 2.18-7.6 1-7.6 1z"/></defs><g><g transform="translate(-797 -2146)"><use fill="#8fd13c" xlink:href="#opxwa"/></g></g></svg>
