<svg xmlns="http://www.w3.org/2000/svg" xmlns:xlink="http://www.w3.org/1999/xlink" width="43" height="46" viewBox="0 0 43 46"><defs><path id="5aeaa" d="M1085.56 2175.25c.6 1.57.59 2.92-.05 4s-1.82 1.77-3.5 2.04c-.36.06-.73.1-1.12.12a2.46 2.46 0 0 1-2.25 1.43c-1.16 0-2.14-.8-2.39-1.86-.9-.19-1.84-.42-2.81-.7-.26 1.09-.56 2.12-.9 3.08-.7 1.99-1.54 3.57-2.48 4.69-1.09 1.3-2.28 1.95-3.56 1.95-1.28 0-2.48-.66-3.56-1.95a15.3 15.3 0 0 1-2.48-4.7c-.34-.95-.64-1.98-.9-3.07-1.1.32-2.16.58-3.18.77-1.32.25-2.54.37-3.61.37-.64 0-1.23-.04-1.77-.13-1.69-.27-2.87-.96-3.5-2.04-.65-1.08-.66-2.43-.06-4a11 11 0 0 1 .93-1.83 2.35 2.35 0 0 1-.35-1.24 2.43 2.43 0 0 1 3.18-2.3c.45-.46.92-.92 1.42-1.38-.83-.77-1.6-1.54-2.27-2.3-1.41-1.6-2.39-3.1-2.91-4.45-.6-1.57-.59-2.92.05-4s1.82-1.77 3.5-2.04c1.47-.24 3.28-.16 5.4.24 1.01.2 2.07.45 3.17.77.26-1.09.56-2.12.9-3.08.7-1.99 1.54-3.57 2.48-4.69 1.09-1.3 2.28-1.95 3.56-1.95 1.28 0 2.47.66 3.56 1.95.2.25.41.53.61.82l.26-.01a2.43 2.43 0 0 1 2.46 2.4c0 .69-.3 1.3-.76 1.74.3.89.57 1.83.81 2.82a32.9 32.9 0 0 1 3.17-.77c2.12-.4 3.93-.48 5.4-.24 1.68.27 2.86.96 3.5 2.04.64 1.08.65 2.43.05 4a15.36 15.36 0 0 1-2.9 4.44c-.68.77-1.45 1.54-2.28 2.31.83.77 1.6 1.54 2.27 2.3 1.41 1.6 2.39 3.1 2.91 4.45zm-11.73-16.73c.33 1.7.57 3.53.72 5.43 1.6 1.07 3.1 2.2 4.44 3.32.83-.76 1.58-1.52 2.25-2.27 2.4-2.72 3.39-5.08 2.65-6.33-.74-1.26-3.33-1.6-6.92-.92-1 .19-2.05.45-3.14.77zm-1.08 13.51a57.3 57.3 0 0 0 0-7.06 59.92 59.92 0 0 0-6.25-3.54 60.25 60.25 0 0 0-6.25 3.54 57.4 57.4 0 0 0 0 7.06 60.21 60.21 0 0 0 6.25 3.54 60.29 60.29 0 0 0 6.25-3.54zm-2.14 3.45c-.66.37-1.32.73-1.98 1.07 1.15.5 2.3.96 3.4 1.35.22-1.14.4-2.33.52-3.57-.63.39-1.28.77-1.94 1.15zm-8.22 0c-.66-.38-1.31-.76-1.95-1.15.14 1.24.3 2.43.52 3.57 1.11-.4 2.26-.84 3.41-1.35-.66-.34-1.32-.7-1.98-1.07zm-4.11-6.98c0-.75.01-1.49.04-2.22-1.03.73-2 1.47-2.9 2.22.9.75 1.87 1.5 2.9 2.22-.03-.73-.04-1.47-.04-2.22zm4.1-6.98c.67-.37 1.33-.73 2-1.07-1.16-.5-2.3-.96-3.42-1.35a45.83 45.83 0 0 0-.52 3.57c.64-.39 1.29-.77 1.95-1.15zm8.23 0c.66.38 1.31.76 1.94 1.15-.13-1.24-.3-2.43-.51-3.57-1.11.39-2.26.84-3.41 1.35.66.34 1.32.7 1.98 1.07zm4.11 6.98c0 .75-.01 1.49-.04 2.22 1.03-.73 2-1.47 2.9-2.22a47.5 47.5 0 0 0-2.9-2.22c.03.73.04 1.47.04 2.22zm-13.38-11.2a51.8 51.8 0 0 1 5.16 2.1 51.8 51.8 0 0 1 5.16-2.1 30.3 30.3 0 0 0-.78-2.73 2.43 2.43 0 0 1-2.4-2.4c0-.58.2-1.1.55-1.52-.82-1.17-1.7-1.82-2.53-1.82-1.47 0-3.07 2.02-4.27 5.41-.34.95-.63 1.97-.89 3.05zm-7.33 9.97a51.12 51.12 0 0 1 4.44-3.32c.15-1.9.4-3.72.72-5.43a31.36 31.36 0 0 0-3.14-.77 17.97 17.97 0 0 0-3.27-.34c-1.86 0-3.16.43-3.65 1.26-.74 1.25.25 3.61 2.65 6.33.67.75 1.42 1.51 2.25 2.27zm5.16 11.21c-.33-1.7-.57-3.53-.72-5.43-1.6-1.07-3.1-2.2-4.44-3.32-.48.44-.94.88-1.37 1.32.19.34.29.73.29 1.13a2.43 2.43 0 0 1-3.05 2.34c-.98 1.62-1.27 2.97-.77 3.81.74 1.26 3.33 1.6 6.92.92 1-.19 2.05-.45 3.14-.77zm12.49 1.23a51.8 51.8 0 0 1-5.16-2.1 51.8 51.8 0 0 1-5.16 2.1c.26 1.08.55 2.1.89 3.05 1.2 3.39 2.8 5.41 4.27 5.41 1.47 0 3.07-2.02 4.27-5.41.33-.95.63-1.97.89-3.05zm9.58-7.7a30.42 30.42 0 0 0-2.25-2.28 50.96 50.96 0 0 1-4.44 3.32c-.15 1.9-.4 3.72-.72 5.43.94.28 1.85.51 2.73.69a2.47 2.47 0 0 1 4.37.4c1.5-.1 2.53-.51 2.96-1.24.74-1.25-.25-3.61-2.65-6.33zm-10.86-3.51c0 2.1-1.74 3.8-3.88 3.8a3.84 3.84 0 0 1-3.88-3.8c0-2.1 1.74-3.8 3.88-3.8 2.14 0 3.88 1.7 3.88 3.8zm-1.87 0c0-1.09-.9-1.97-2.01-1.97-1.1 0-2 .88-2 1.97 0 1.08.9 1.97 2 1.97s2-.89 2-1.97z"/></defs><g><g transform="translate(-1045 -2145)"><use fill="#8fd13c" xlink:href="#5aeaa"/></g></g></svg>
