<svg xmlns="http://www.w3.org/2000/svg" xmlns:xlink="http://www.w3.org/1999/xlink" width="53" height="47" viewBox="0 0 53 47"><defs><path id="hyh2a" d="M1320.69 2173.32v10l-9.8 5.68-8.9-5.18-8.92 5.18-8.63-5.02-6.15 4.92-1.29-1.64 6.29-5.02v-10.3l9.08-5.29v-8.86l-6.32-5.05 1.3-1.63 6.15 4.91 7.28-4.23V2145h2.08v6.4l7.95 4.62 6.16-4.91 1.29 1.63-6.32 5.05v9.06l7.81 4.54 5.96-4.76 1.29 1.64zm-26.25-6.47l7.71 4.48 7.71-4.48v-8.96l-7.7-4.48-7.72 4.48zm6.34 6.3l-7.7-4.49-7.72 4.48v8.96l7.71 4.48 7.71-4.48zm17.83 8.95v-8.96l-7.7-4.48-7.72 4.48v8.96l7.7 4.48 7.72-4.48z"/></defs><g><g transform="translate(-1275 -2143)"><use fill="#8fd13c" xlink:href="#hyh2a"/></g></g></svg>
