<svg xmlns="http://www.w3.org/2000/svg" xmlns:xlink="http://www.w3.org/1999/xlink" width="87" height="257" viewBox="0 0 87 257"><defs><path id="t2h8a" d="M343 1317a23 23 0 1 1 0 46 23 23 0 0 1 0-46z"/><path id="t2h8b" d="M312 1424a23 23 0 1 1 0 46 23 23 0 0 1 0-46z"/><path id="t2h8c" d="M343 1521a23 23 0 1 1 0 46 23 23 0 0 1 0-46z"/><path id="t2h8f" d="M343.5 1327.28c.3.51 7.5 12.61 7.5 17.55a8.1 8.1 0 0 1-8 8.17 8.1 8.1 0 0 1-8-8.17c0-4.94 7.2-17.04 7.5-17.55.11-.17.3-.28.5-.28s.39.1.5.28zm6.35 17.55c0-3.9-5.2-13.24-6.85-16.1-1.64 2.86-6.85 12.2-6.85 16.1 0 3.85 3.07 7 6.85 7a6.93 6.93 0 0 0 6.85-7zm-8.45 5l-.69-.97s2.69.74 4.48-.6c2-1.47 2.8-4.1 2.8-4.1l.69.97s-.64 2.6-2.6 4.07c-1.83 1.35-4.68.62-4.68.62z"/><path id="t2h8h" d="M326 1447c0 7.72-6.28 14-14 14a14.02 14.02 0 0 1-9.92-23.88.47.47 0 1 1 .66.66 13.08 13.08 0 0 0 9.26 22.29c7.2 0 13.07-5.87 13.07-13.07 0-7.05-5.61-12.81-12.6-13.06v5.73a.47.47 0 1 1-.94 0v-6.2c0-.26.21-.47.47-.47 7.72 0 14 6.28 14 14zm-19.05-4.4a.47.47 0 0 1 .66-.65l6.04 4.37a1.66 1.66 0 1 1-2.32 2.33zm2.46 1.82l2.67 3.68a.73.73 0 1 0 1.02-1.02z"/><path id="t2h8j" d="M334.05 1558a.55.55 0 0 1-.32-.1.52.52 0 0 1-.21-.51l1.66-9.48-7.03-6.72a.52.52 0 0 1-.14-.53.54.54 0 0 1 .44-.36l9.71-1.39 4.35-8.62c.1-.18.28-.3.48-.3.2 0 .4.12.48.3l4.35 8.62 9.72 1.39c.2.03.37.16.43.36.06.19.01.4-.14.53l-7.03 6.72 1.66 9.48c.04.2-.05.4-.21.51a.54.54 0 0 1-.57.04l-8.69-4.47-8.7 4.47a.55.55 0 0 1-.24.06zm-4.37-16.81l6.45 6.16c.13.12.19.3.16.46l-1.53 8.7 7.98-4.1a.54.54 0 0 1 .5 0l7.98 4.1-1.52-8.7a.52.52 0 0 1 .15-.46l6.46-6.16-8.92-1.27a.54.54 0 0 1-.4-.3l-4-7.9-3.99 7.9a.54.54 0 0 1-.4.3z"/><mask id="t2h8e" width="2.03" height="2.03" x="-1.01" y="-1.01"><path fill="#fff" d="M319.4 1316.4h47.2v47.2h-47.2z"/><use xlink:href="#t2h8a"/></mask><filter id="t2h8d" width="80.3" height="83" x="309.4" y="1306.4" filterUnits="userSpaceOnUse"><feOffset dx=".3" dy="3" in="SourceGraphic" result="FeOffset1101Out"/><feGaussianBlur in="FeOffset1101Out" result="FeGaussianBlur1102Out" stdDeviation="2.56 2.56"/></filter><clipPath id="t2h8g"><use fill="#fff" xlink:href="#t2h8b"/></clipPath><clipPath id="t2h8i"><use fill="#fff" xlink:href="#t2h8c"/></clipPath></defs><g><g transform="translate(-287 -1311)"><g filter="url(#t2h8d)"><use fill="none" stroke="#000" stroke-opacity=".08" stroke-width="1.2" mask="url(&quot;#t2h8e&quot;)" xlink:href="#t2h8a"/><use fill-opacity=".08" xlink:href="#t2h8a"/></g><use fill="#8fd13c" xlink:href="#t2h8a"/></g><g transform="translate(-287 -1311)"><use fill="#fff" xlink:href="#t2h8f"/></g><g transform="translate(-287 -1311)"><use fill="#fefefe" xlink:href="#t2h8b"/><use fill="#fff" fill-opacity="0" stroke="#8fd13c" stroke-miterlimit="50" stroke-width="2" clip-path="url(&quot;#t2h8g&quot;)" xlink:href="#t2h8b"/></g><g transform="translate(-287 -1311)"><use fill="#8fd13c" xlink:href="#t2h8h"/></g><g transform="translate(-287 -1311)"><use fill="#fff" xlink:href="#t2h8c"/><use fill="#fff" fill-opacity="0" stroke="#8fd13c" stroke-miterlimit="50" stroke-width="2" clip-path="url(&quot;#t2h8i&quot;)" xlink:href="#t2h8c"/></g><g transform="translate(-287 -1311)"><use fill="#8fd13c" xlink:href="#t2h8j"/></g></g></svg>
